# xmcd
#
# Track frame offsets:
#	150
#	22643
#	43120
#	63734
#	85749
#	104459
#	136095
#	154944
#	178971
#
# Disc length: 2793 seconds
#
# Revision: 0
# Processed by: cddbd v1.5.1PL0 Copyright (c) Steve Scherf et al.
# Submitted via: EasyCDDAExtractor 4.6.9.1
#
DISCID=710ae709
DTITLE=Depeche Mode - Spreading The News Around Strasbourg - CD2
DYEAR=1988
DGENRE=live
TTITLE0=Shake The Disease
TTITLE1=Nothing
TTITLE2=Pleasure Little Treasure
TTITLE3=People Are People
TTITLE4=A Question Of Time
TTITLE5=Never Let Me Down Again
TTITLE6=A Question Of Lust
TTITLE7=Master And Servant
TTITLE8=Everything Counts
EXTD=
EXTT0=
EXTT1=
EXTT2=
EXTT3=
EXTT4=
EXTT5=
EXTT6=
EXTT7=
EXTT8=
PLAYORDER=
